<svg width="460" height="538" viewBox="0 0 460 538" fill="none" xmlns="http://www.w3.org/2000/svg">
<path fill-rule="evenodd" clip-rule="evenodd" d="M328.321 69.1125L387.012 35.2659V65.352L328.321 99.1989V69.1125Z" fill="#FBB03B"/>
<path fill-rule="evenodd" clip-rule="evenodd" d="M328.321 113.895L387.012 80.0486V110.134L328.321 143.981V113.895Z" fill="#FBB03B"/>
<path d="M95.5465 91.1498C95.5465 74.8655 91.7354 64.5027 84.9602 58.1582C77.3381 50.9677 66.3285 48.4299 52.1429 48.4299C38.5925 48.4299 23.56 51.3907 9.37448 56.4663L22.7131 86.7086H23.1366L40.2863 54.9859C41.5567 52.6596 41.7684 52.4481 46.0029 52.4481C57.0126 52.4481 61.4588 62.1764 61.4588 76.7689V77.8263L61.0353 100.455C55.3188 96.4369 47.6967 94.745 38.5925 94.745C21.2311 94.745 3.02274 105.742 3.02274 126.679C3.02274 146.136 16.3614 156.499 31.8173 156.499C45.5794 156.499 56.3774 148.251 60.6119 135.985C61.2471 149.308 71.6216 156.499 83.6899 156.499C93.8527 156.499 101.051 151.846 104.439 144.867C105.709 142.329 106.133 139.157 106.133 137.253H105.709C104.439 139.791 102.533 141.06 99.781 141.06C95.5465 141.06 93.641 137.042 94.0644 128.794L95.3347 98.7633C95.3347 98.1288 95.5465 93.2647 95.5465 91.1498ZM53.2015 101.301C55.9539 101.301 58.4946 101.724 61.0353 102.57L60.6119 133.447V133.658C57.8595 137.888 53.2015 141.06 48.5436 141.06C41.3449 141.06 36.0518 134.716 36.0518 123.084C36.0518 110.818 42.1918 101.301 53.2015 101.301ZM200.498 55.4089C197.322 51.1792 192.452 48.4299 186.1 48.4299C171.28 48.4299 162.387 62.1764 158.788 77.1918V50.1218H111.785V50.5448L122.159 61.119C123.853 63.0224 124.065 63.6568 124.065 66.4061V139.58C124.065 142.329 124.065 142.964 122.159 144.655L111.785 154.384V154.807H182.713V154.384L161.964 142.329C159 140.426 158.788 139.368 158.788 137.042V79.9411C161.964 74.0196 164.293 70.2128 167.892 67.675C169.374 66.6176 170.644 67.4635 171.703 68.7324L188.429 88.612H188.853L200.498 55.4089ZM313.502 93.0532C313.502 63.8683 301.857 48.4299 280.473 48.4299C263.111 48.4299 252.102 57.9467 246.809 73.1736V0.634399L200.017 6.13301V6.55597L210.392 16.2843C212.086 17.9761 212.297 18.8221 212.297 21.5714V139.58C212.297 142.329 212.086 142.964 210.392 144.655L200.017 154.384V154.807H259.3V154.384L248.926 144.655C247.02 142.964 246.809 142.329 246.809 139.58V75.4999C250.62 70.0013 255.489 65.9831 262.688 65.9831C275.603 65.9831 278.779 78.6722 278.779 97.9173C278.779 108.069 278.144 136.619 278.144 139.791C278.144 142.118 277.932 142.964 276.027 144.655L266.076 154.384V154.807H325.358V154.384L314.984 144.655C313.078 142.964 312.867 142.329 312.867 139.58C313.078 122.873 313.502 106.165 313.502 93.0532ZM32.2408 228.826C41.7684 228.826 49.3905 222.693 49.3905 213.176C49.3905 203.025 41.7684 196.681 32.2408 196.681C23.1366 196.681 15.3028 203.025 15.3028 213.176C15.3028 222.693 23.1366 228.826 32.2408 228.826ZM3.23447 240.458V240.881L13.609 251.455C15.3028 253.358 15.5145 253.993 15.5145 256.742V329.916C15.5145 332.665 15.5145 333.3 13.609 334.992L3.23447 344.72V345.143H62.5174V344.72L52.1429 334.992C50.2374 333.3 50.2374 332.665 50.2374 329.916V240.458H3.23447ZM137.801 240.458H111.759V204.929H111.335L81.6934 238.132C79.5762 240.458 78.5175 240.458 75.1299 240.458H65.6023V244.688H77.2472V317.861C77.2472 336.895 86.3517 346.835 104.772 346.835C124.886 346.835 133.566 334.569 135.684 322.725L135.26 322.514C132.931 326.744 128.485 330.339 122.98 330.339C115.993 330.339 111.759 324.84 111.759 315.323V244.688H137.801V240.458ZM238.588 288.042C238.799 285.504 238.799 284.024 238.799 283.389C238.799 249.34 214.875 238.766 192.432 238.766C164.272 238.766 139.289 254.416 139.289 293.541C139.289 330.762 164.484 346.835 191.161 346.835C215.933 346.835 232.448 334.357 237.953 307.71H237.529C230.542 321.668 218.05 327.167 205.347 327.167C189.044 327.167 175.07 315.958 175.07 288.465V288.042H238.588ZM192.008 242.784C200.689 242.784 206.406 250.186 206.406 277.891C206.406 278.737 206.406 281.486 206.194 284.235H175.07C175.494 253.57 181.422 242.784 192.008 242.784ZM297.993 346.835C322.342 346.835 337.163 332.454 340.762 309.613H340.338C334.622 320.611 325.518 326.955 314.296 326.955C299.899 326.955 285.713 316.169 285.713 283.812C285.713 256.531 292.912 242.784 305.827 242.784H306.886C309.427 242.784 309.85 243.207 310.697 245.322L327 281.486H327.423L340.974 245.111C327.635 240.669 316.202 238.766 304.98 238.766C277.668 238.766 248.662 253.147 248.662 293.964C248.662 329.916 272.798 346.835 297.993 346.835ZM72.2567 430.794H46.2146V395.265H45.7911L16.1497 428.468C14.0324 430.794 12.9738 430.794 9.58621 430.794H0.0585938V435.024H11.7035V508.197C11.7035 527.231 20.8076 537.171 39.2277 537.171C59.3415 537.171 68.0223 524.905 70.1395 513.062L69.716 512.85C67.3871 517.08 62.9409 520.675 57.436 520.675C50.4491 520.675 46.2146 515.176 46.2146 505.66V435.024H72.2567V430.794ZM182.119 430.794H135.116V431.217L145.491 441.791C147.184 443.695 147.396 444.329 147.396 447.078V510.312C143.797 515.599 138.927 519.829 132.152 519.829C120.295 519.829 117.543 507.14 117.543 488.318C117.543 485.569 117.755 431.428 117.755 430.794H70.9633V431.217L81.3378 441.791C83.0316 443.483 83.2433 444.118 83.2433 446.867C83.0316 463.997 82.8199 479.224 82.8199 493.182C82.8199 521.944 94.0415 537.171 115.002 537.171C130.67 537.171 142.103 527.231 147.396 512.85V535.479H194.611V535.056L184.025 524.693C182.119 523.001 182.119 522.155 182.119 519.406V430.794ZM289.405 436.081C286.229 431.851 281.36 429.102 275.008 429.102C260.187 429.102 251.295 442.849 247.695 457.864V430.794H200.692V431.217L211.067 441.791C212.761 443.695 212.972 444.329 212.972 447.078V520.252C212.972 523.001 212.972 523.636 211.067 525.328L200.692 535.056V535.479H271.62V535.056L250.871 523.001C247.907 521.098 247.695 520.041 247.695 517.714V460.613C250.871 454.692 253.2 450.885 256.799 448.347C258.282 447.29 259.552 448.136 260.61 449.405L277.337 469.284H277.76L289.405 436.081ZM383.567 471.822C383.567 455.538 379.756 445.175 372.98 438.83C365.358 431.64 354.349 429.102 340.163 429.102C326.613 429.102 311.58 432.063 297.395 437.139L310.733 467.381H311.157L328.307 435.658C329.577 433.332 329.789 433.12 334.023 433.12C345.033 433.12 349.479 442.849 349.479 457.441V458.499L349.056 481.127C343.339 477.109 335.717 475.417 326.613 475.417C309.251 475.417 291.043 486.414 291.043 507.351C291.043 526.808 304.382 537.171 319.838 537.171C333.6 537.171 344.398 528.923 348.632 516.657C349.267 529.98 359.642 537.171 371.71 537.171C381.873 537.171 389.072 532.518 392.459 525.539C393.73 523.001 394.153 519.829 394.153 517.926H393.73C392.459 520.464 390.554 521.732 387.801 521.732C383.567 521.732 381.661 517.714 382.085 509.466L383.355 479.435C383.355 478.801 383.567 473.937 383.567 471.822ZM341.222 481.973C343.974 481.973 346.515 482.396 349.056 483.242L348.632 514.119V514.33C345.88 518.56 341.222 521.732 336.564 521.732C329.365 521.732 324.072 515.388 324.072 503.756C324.072 491.49 330.212 481.973 341.222 481.973ZM339.528 404.993C324.496 404.993 313.909 398.014 313.274 384.902H312.851C312.215 388.074 312.004 390.823 312.004 393.784C312.004 413.029 325.766 421.277 339.528 421.277C353.502 421.277 367.476 413.029 367.476 393.784C367.476 390.823 367.052 388.074 366.629 384.902H366.205C365.358 398.014 354.984 404.993 339.528 404.993Z" fill="white"/>
<path d="M435.784 536.596C448.92 536.596 459.569 525.941 459.569 512.798C459.569 499.655 448.92 489 435.784 489C422.649 489 412 499.655 412 512.798C412 525.941 422.649 536.596 435.784 536.596Z" fill="#FBB03B"/>
</svg>
