<svg width="330" height="533" viewBox="0 0 330 533" fill="none" xmlns="http://www.w3.org/2000/svg">
<path d="M32.5066 32.2773C42.1303 32.2773 49.8293 26.1191 49.8293 16.5633C49.8293 6.37051 42.1303 0 32.5066 0C23.3107 0 15.3979 6.37051 15.3979 16.5633C15.3979 26.1191 23.3107 32.2773 32.5066 32.2773ZM3.20789 43.9566V44.3813L13.687 54.9988C15.3979 56.91 15.6117 57.547 15.6117 60.3076V133.781C15.6117 136.541 15.6117 137.178 13.687 138.877L3.20789 148.645V149.07H63.0886V148.645L52.6094 138.877C50.6847 137.178 50.6847 136.541 50.6847 133.781V43.9566H3.20789Z" fill="#FBB03B"/>
<path d="M184.255 87.0637C184.255 57.7594 172.279 42.2578 150.893 42.2578C133.57 42.2578 122.236 51.6012 116.889 66.4657V43.9566H69.4125V44.3813L79.8916 54.9988C81.6024 56.91 81.8163 57.547 81.8163 60.3076V133.781C81.8163 136.541 81.8163 137.178 79.8916 138.877L69.4125 148.645V149.07H129.293V148.645L118.814 138.877C116.889 137.178 116.889 136.541 116.889 133.781V69.2263C120.739 63.7052 125.871 59.8829 132.715 59.8829C145.974 59.8829 148.968 72.6239 148.968 91.9478C148.968 102.141 148.327 130.808 148.327 133.993C148.327 136.329 148.113 137.178 146.402 138.877L136.137 148.645V149.07H196.231V148.645L185.538 138.877C183.827 137.178 183.613 136.541 183.613 133.781C183.827 117.005 184.255 100.229 184.255 87.0637Z" fill="#FBB03B"/>
<path d="M72.9261 235.072H46.6214V199.397H46.1937L16.2533 232.736C14.1147 235.072 13.0454 235.072 9.62368 235.072H0V239.319H11.7623V312.792C11.7623 331.904 20.9582 341.884 39.564 341.884C59.8807 341.884 68.6489 329.568 70.7875 317.676L70.3598 317.464C68.0073 321.711 63.5163 325.321 57.9559 325.321C50.8986 325.321 46.6214 319.8 46.6214 310.244V239.319H72.9261V235.072Z" fill="#FBB03B"/>
<path d="M174.73 282.851C174.944 280.303 174.944 278.816 174.944 278.179C174.944 243.991 150.778 233.373 128.109 233.373C99.6652 233.373 74.4298 249.087 74.4298 288.372C74.4298 325.746 99.8791 341.884 126.825 341.884C151.847 341.884 168.528 329.356 174.088 302.6H173.661C166.603 316.615 153.986 322.136 141.154 322.136C124.687 322.136 110.572 310.881 110.572 283.276V282.851H174.73ZM127.681 237.408C136.449 237.408 142.223 244.84 142.223 272.658C142.223 273.508 142.223 276.268 142.009 279.029H110.572C111 248.238 116.988 237.408 127.681 237.408Z" fill="#FBB03B"/>
<path d="M271.588 240.381C268.38 236.134 263.462 233.373 257.046 233.373C242.076 233.373 233.094 247.176 229.458 262.253V235.072H181.981V235.497L192.46 246.114C194.171 248.025 194.385 248.663 194.385 251.423V324.896C194.385 327.657 194.385 328.294 192.46 329.993L181.981 339.761V340.186H253.624V339.761L232.666 327.657C229.672 325.746 229.458 324.684 229.458 322.348V265.014C232.666 259.068 235.018 255.245 238.654 252.697C240.151 251.635 241.434 252.485 242.503 253.759L259.398 273.72H259.826L271.588 240.381Z" fill="#FBB03B"/>
<path d="M32.5066 414.508C42.1303 414.508 49.8293 408.35 49.8293 398.794C49.8293 388.602 42.1303 382.231 32.5066 382.231C23.3107 382.231 15.3979 388.602 15.3979 398.794C15.3979 408.35 23.3107 414.508 32.5066 414.508ZM3.20789 426.188V426.612L13.687 437.23C15.3979 439.141 15.6117 439.778 15.6117 442.539V516.012C15.6117 518.773 15.6117 519.41 13.687 521.108L3.20789 530.876V531.301H63.0886V530.876L52.6094 521.108C50.6847 519.41 50.6847 518.773 50.6847 516.012V426.188H3.20789Z" fill="#FBB03B"/>
<path d="M124.832 428.523C135.525 428.523 142.155 437.867 142.155 478.851C142.155 520.047 135.525 529.178 124.832 529.178C114.139 529.178 107.51 519.622 107.51 478.638C107.51 437.442 114.139 428.523 124.832 428.523ZM124.832 533C158.622 533 181.291 514.526 181.291 478.851C181.291 442.751 158.622 424.489 124.832 424.489C91.0423 424.489 68.5871 442.963 68.5871 478.638C68.5871 514.738 91.0423 533 124.832 533Z" fill="#FBB03B"/>
<path d="M278.689 431.496C275.481 427.249 270.562 424.489 264.147 424.489C249.176 424.489 240.194 438.292 236.559 453.368V426.188H189.082V426.612L199.561 437.23C201.272 439.141 201.486 439.778 201.486 442.539V516.012C201.486 518.773 201.486 519.41 199.561 521.108L189.082 530.876V531.301H260.725V530.876L239.767 518.773C236.773 516.861 236.559 515.8 236.559 513.464V456.129C239.767 450.183 242.119 446.361 245.755 443.813C247.252 442.751 248.535 443.6 249.604 444.874L266.499 464.835H266.927L278.689 431.496Z" fill="#FBB03B"/>
<path d="M330 509C330 522.255 319.415 533 306.357 533C293.299 533 282.713 522.255 282.713 509C282.713 495.745 293.299 485 306.357 485C319.415 485 330 495.745 330 509Z" fill="#F6F6F6"/>
<path fill-rule="evenodd" clip-rule="evenodd" d="M217.318 65.9416L279.696 31V62.0587L217.319 97L217.318 96.999V65.9416Z" fill="#F6F6F6"/>
<path fill-rule="evenodd" clip-rule="evenodd" d="M217.318 112.471L279.696 77V108.529L217.319 144L217.318 143.999V112.471Z" fill="#F6F6F6"/>
</svg>
