<svg width="369" height="493" viewBox="0 0 369 493" fill="none" xmlns="http://www.w3.org/2000/svg">
<path d="M344.874 492.747C358.01 492.747 368.659 482.093 368.659 468.949C368.659 455.806 358.01 445.151 344.874 445.151C331.738 445.151 321.09 455.806 321.09 468.949C321.09 482.093 331.738 492.747 344.874 492.747Z" fill="#D3D3D3"/>
<path d="M186.028 44.8339C186.028 15.5113 174.136 0 153.112 0C135.274 0 122.532 11.0491 117.648 25.073C113.188 8.7118 102.57 0 86.8555 0C69.6543 0 58.3992 9.34925 53.0901 24.2231V1.69986H5.9461V2.12483L16.3518 12.749C18.0506 14.6613 18.263 15.2988 18.263 18.0611V91.5802C18.263 94.3424 18.263 94.9799 16.3518 96.6798L5.9461 106.454V106.879H65.4071V106.454L55.0014 96.6798C53.0901 94.9799 53.0901 94.3424 53.0901 91.5802V26.9853C56.9126 21.4608 62.0093 17.6361 68.8048 17.6361C81.9712 17.6361 84.9442 30.3851 84.9442 49.721C84.9442 59.9202 84.3072 88.6054 84.3072 91.7926C84.3072 94.13 84.0948 94.9799 82.3959 96.6798L72.2026 106.454V106.879H131.876V106.454L121.258 96.6798C119.559 94.9799 119.347 94.3424 119.347 91.5802C119.559 74.794 119.984 58.0079 119.984 44.8339C119.984 38.0345 119.347 32.0849 118.072 26.7729C122.32 21.2483 128.053 17.6361 134.849 17.6361C148.228 17.6361 151.201 30.5975 151.201 49.721C151.201 59.9202 150.564 88.3929 150.564 91.7926C150.564 94.13 150.139 94.9799 148.44 96.6798L138.459 106.454V106.879H197.92V106.454L187.514 96.6798C185.603 94.9799 185.391 94.3424 185.391 91.5802C185.603 74.794 186.028 58.8578 186.028 44.8339ZM258.821 4.03718C269.439 4.03718 276.022 13.3864 276.022 54.3956C276.022 95.6173 269.439 104.754 258.821 104.754C248.203 104.754 241.62 95.1924 241.62 54.1832C241.62 12.9615 248.203 4.03718 258.821 4.03718ZM258.821 108.579C292.374 108.579 314.884 90.0928 314.884 54.3956C314.884 18.2735 292.374 0 258.821 0C225.268 0 202.97 18.486 202.97 54.1832C202.97 90.3053 225.268 108.579 258.821 108.579ZM46.9317 143.214L0 148.738V149.163L10.1933 158.937C11.8922 160.637 12.1046 161.487 12.1046 164.249V299.813H12.5293L46.0822 288.339C51.3913 295.351 60.098 299.813 72.415 299.813C100.871 299.813 119.984 277.078 119.984 244.568C119.984 212.483 104.694 191.235 80.0599 191.235C64.5576 191.235 53.7272 199.522 46.9317 214.608V143.214ZM62.8587 208.233C74.9633 208.233 83.2454 218.432 83.2454 245.63C83.2454 281.54 72.415 290.677 59.2486 290.677C54.789 290.677 50.3295 289.402 46.9317 286.002V217.37C51.3913 211.208 56.7003 208.233 62.8587 208.233ZM156.566 181.248C166.122 181.248 173.767 175.086 173.767 165.524C173.767 155.325 166.122 148.951 156.566 148.951C147.434 148.951 139.577 155.325 139.577 165.524C139.577 175.086 147.434 181.248 156.566 181.248ZM127.472 192.935V193.36L137.878 203.984C139.577 205.896 139.789 206.533 139.789 209.296V282.815C139.789 285.577 139.789 286.215 137.878 287.914L127.472 297.689V298.114H186.933V297.689L176.528 287.914C174.616 286.215 174.616 285.577 174.616 282.815V192.935H127.472ZM50.5418 334.448L3.61013 339.973V340.398L14.0158 350.172C15.7147 351.872 15.927 352.722 15.927 355.484V474.05C15.927 476.812 15.7147 477.449 14.0158 479.149L3.61013 488.923V489.348H63.0711V488.923L52.6654 479.149C50.7542 477.449 50.5418 476.812 50.5418 474.05V334.448ZM98.2915 372.483C107.848 372.483 115.493 366.321 115.493 356.759C115.493 346.56 107.848 340.185 98.2915 340.185C89.16 340.185 81.3026 346.56 81.3026 356.759C81.3026 366.321 89.16 372.483 98.2915 372.483ZM69.198 384.169V384.594L79.6037 395.218C81.3026 397.131 81.515 397.768 81.515 400.53V474.05C81.515 476.812 81.515 477.449 79.6037 479.149L69.198 488.923V489.348H128.659V488.923L118.253 479.149C116.342 477.449 116.342 476.812 116.342 474.05V384.169H69.198ZM233.504 431.978C233.716 429.428 233.716 427.941 233.716 427.303C233.716 393.094 209.72 382.469 187.209 382.469C158.965 382.469 133.907 398.193 133.907 437.502C133.907 474.899 159.178 491.048 185.935 491.048C210.781 491.048 227.346 478.512 232.867 451.739H232.442C225.434 465.763 212.905 471.287 200.163 471.287C183.812 471.287 169.796 460.026 169.796 432.403V431.978H233.504ZM186.785 386.507C195.492 386.507 201.225 393.943 201.225 421.779C201.225 422.629 201.225 425.391 201.013 428.153H169.796C170.221 397.343 176.167 386.507 186.785 386.507ZM329.683 389.481C326.498 385.232 321.613 382.469 315.242 382.469C300.377 382.469 291.458 396.281 287.848 411.367V384.169H240.704V384.594L251.11 395.218C252.808 397.131 253.021 397.768 253.021 400.53V474.05C253.021 476.812 253.021 477.449 251.11 479.149L240.704 488.923V489.348H311.845V488.923L291.033 476.812C288.06 474.899 287.848 473.837 287.848 471.5V414.129C291.033 408.18 293.369 404.355 296.979 401.805C298.466 400.743 299.74 401.593 300.802 402.868L317.578 422.841H318.003L329.683 389.481Z" fill="#FBB03B"/>
<path fill-rule="evenodd" clip-rule="evenodd" d="M219.156 213.604L280.316 178.273V209.678L219.156 245.01V213.604Z" fill="#D3D3D3"/>
<path fill-rule="evenodd" clip-rule="evenodd" d="M219.156 260.35L280.316 225.019V256.424L219.156 291.756V260.35Z" fill="#D3D3D3"/>
</svg>
