<svg width="352" height="578" viewBox="0 0 352 578" fill="none" xmlns="http://www.w3.org/2000/svg">
<circle cx="312.25" cy="549.75" r="28" fill="#FBB03B"/>
<path d="M76.75 105C76.75 100.167 75 96.3333 71.5 93.5C68.1667 90.6667 61.9167 87.1667 52.75 83L35.75 75C19.5833 67.3333 11.5 55.5 11.5 39.5C11.5 27.5 16.0833 17.9167 25.25 10.75C34.4167 3.58333 46.9167 0 62.75 0C77.4167 0 92.0833 2.25 106.75 6.75L92.75 43H92.25L72.75 8.25C71.25 5.75 69.3333 4.5 67 4.5H63.5C57.6667 4.5 52.8333 6 49 9C45.1667 12 43.25 16.3333 43.25 22C43.25 27.1667 45 31.3333 48.5 34.5C52.1667 37.6667 58.0833 41.0833 66.25 44.75L82.25 51.75C91.25 55.5833 98.0833 60.0833 102.75 65.25C107.583 70.4167 110 77.4167 110 86.25C110 99.4167 104.917 109.667 94.75 117C84.5833 124.167 71 127.75 54 127.75C38 127.75 22.6667 125.167 8 120L21.75 81.25H22.25L42.25 120C43.25 122.167 45 123.25 47.5 123.25H53.25C60.4167 123.25 66.0833 121.583 70.25 118.25C74.5833 114.917 76.75 110.5 76.75 105Z" fill="#030303"/>
<path d="M238.764 58.25H163.764V58.75C163.764 74.0833 167.097 85.5833 173.764 93.25C180.43 100.75 189.014 104.5 199.514 104.5C217.18 104.5 229.847 96.8333 237.514 81.5H238.014C231.68 112.333 213.264 127.75 182.764 127.75C165.597 127.75 151.097 122.417 139.264 111.75C127.43 101.083 121.514 85.4167 121.514 64.75C121.514 42.9167 127.43 26.6667 139.264 16C151.097 5.33334 166.097 0 184.264 0C191.264 0 197.847 0.916665 204.014 2.75C210.18 4.58333 215.93 7.41666 221.264 11.25C226.764 15.0833 231.097 20.5833 234.264 27.75C237.43 34.75 239.014 43.0833 239.014 52.75C239.014 54.4167 238.93 56.25 238.764 58.25ZM183.764 4.75C177.264 4.75 172.347 8.58333 169.014 16.25C165.68 23.75 163.93 36.25 163.764 53.75H200.514C200.68 51.5833 200.764 49.0833 200.764 46.25C200.764 30.75 199.264 20 196.264 14C193.43 7.83333 189.264 4.75 183.764 4.75Z" fill="#030303"/>
<path d="M351.99 8.25L338.24 47.5H337.74L317.99 24C316.49 22.1667 314.99 21.75 313.49 22.75C310.324 25.0833 306.74 29.9167 302.74 37.25V104.75C302.74 107.25 303.99 109.333 306.49 111L330.99 125.25V125.75H247.24V125.25L259.49 113.75C260.99 112.417 261.74 110.417 261.74 107.75V21.25C261.74 18.75 260.99 16.6667 259.49 15L247.24 2.5V2H302.74V34C305.074 24.1667 308.99 16.0833 314.49 9.75C319.99 3.25 326.824 0 334.99 0C342.157 0 347.824 2.75 351.99 8.25Z" fill="#030303"/>
<path d="M102.25 268L74.25 350.75H45.75L13 255.75C10.8333 249.75 9.08333 245.333 7.75 242.5L0 227.5V227H62.5V227.5L54 241.75C52.8333 243.75 52.5833 245.833 53.25 248L78.25 323.5L97.5 267.25C98.1667 264.583 98.4167 262.917 98.25 262.25C98.25 261.417 97.75 259.917 96.75 257.75L82 227.5V227H125V227.5L108 256.75C105 261.75 103.083 265.5 102.25 268Z" fill="#030303"/>
<path d="M159.176 213.25C153.676 213.25 148.926 211.583 144.926 208.25C141.092 204.75 139.176 200.25 139.176 194.75C139.176 188.917 141.092 184.25 144.926 180.75C148.926 177.083 153.676 175.25 159.176 175.25C165.009 175.25 169.842 177.083 173.676 180.75C177.509 184.25 179.426 188.917 179.426 194.75C179.426 200.25 177.509 204.75 173.676 208.25C169.842 211.583 165.009 213.25 159.176 213.25ZM124.926 227H180.426V332.75C180.426 335.417 181.176 337.417 182.676 338.75L194.926 350.25V350.75H124.926V350.25L137.176 338.75C138.676 337.417 139.426 335.417 139.426 332.75V246.25C139.426 243.75 138.676 241.667 137.176 240L124.926 227.5V227Z" fill="#030303"/>
<path d="M65.5 577.75C49.3333 577.75 35.5833 572.333 24.25 561.5C12.9167 550.667 7.25 535.25 7.25 515.25C7.25 503.75 9.16667 493.667 13 485C16.8333 476.167 22 469.333 28.5 464.5C35 459.5 42 455.833 49.5 453.5C57.1667 451.167 65.25 450 73.75 450C87.0833 450 101.25 452.5 116.25 457.5L100.25 500.5H99.75L80.5 457.75C80 456.417 79.5 455.583 79 455.25C78.5 454.917 77.5 454.75 76 454.75H74.75C58.9167 454.75 51 470.917 51 503.25C51 520.917 54.1667 533.833 60.5 542C67 550.167 75.0833 554.25 84.75 554.25C98.0833 554.25 108.333 547.417 115.5 533.75H116C113.833 547.583 108.417 558.417 99.75 566.25C91.0833 573.917 79.6667 577.75 65.5 577.75Z" fill="#030303"/>
<path d="M159.176 438.25C153.676 438.25 148.926 436.583 144.926 433.25C141.092 429.75 139.176 425.25 139.176 419.75C139.176 413.917 141.092 409.25 144.926 405.75C148.926 402.083 153.676 400.25 159.176 400.25C165.009 400.25 169.842 402.083 173.676 405.75C177.509 409.25 179.426 413.917 179.426 419.75C179.426 425.25 177.509 429.75 173.676 433.25C169.842 436.583 165.009 438.25 159.176 438.25ZM124.926 452H180.426V557.75C180.426 560.417 181.176 562.417 182.676 563.75L194.926 575.25V575.75H124.926V575.25L137.176 563.75C138.676 562.417 139.426 560.417 139.426 557.75V471.25C139.426 468.75 138.676 466.667 137.176 465L124.926 452.5V452Z" fill="#030303"/>
<path d="M236.568 438.25C231.068 438.25 226.318 436.583 222.318 433.25C218.485 429.75 216.568 425.25 216.568 419.75C216.568 413.917 218.485 409.25 222.318 405.75C226.318 402.083 231.068 400.25 236.568 400.25C242.402 400.25 247.235 402.083 251.068 405.75C254.902 409.25 256.818 413.917 256.818 419.75C256.818 425.25 254.902 429.75 251.068 433.25C247.235 436.583 242.402 438.25 236.568 438.25ZM202.318 452H257.818V557.75C257.818 560.417 258.568 562.417 260.068 563.75L272.318 575.25V575.75H202.318V575.25L214.568 563.75C216.068 562.417 216.818 560.417 216.818 557.75V471.25C216.818 468.75 216.068 466.667 214.568 465L202.318 452.5V452Z" fill="#030303"/>
<path fill-rule="evenodd" clip-rule="evenodd" d="M247.25 250.319L319.25 208.75V245.7L247.25 287.27V250.319Z" fill="#FBB03B"/>
<path fill-rule="evenodd" clip-rule="evenodd" d="M247.25 305.319L319.25 263.75V300.7L247.25 342.27V305.319Z" fill="#FBB03B"/>
</svg>
