<svg width="311" height="513" viewBox="0 0 311 513" fill="none" xmlns="http://www.w3.org/2000/svg">
<circle cx="275.634" cy="488.283" r="24.7166" fill="#FBB03B"/>
<path d="M67.7499 92.6871C67.7499 88.4206 66.2051 85.0368 63.1155 82.5357C60.1731 80.0346 54.656 76.945 46.5643 73.267L31.5578 66.2051C17.2869 59.4375 10.1515 48.9918 10.1515 34.868C10.1515 24.2752 14.1973 15.8157 22.2891 9.4894C30.3808 3.16313 41.415 0 55.3916 0C68.3384 0 81.2852 1.98615 94.2319 5.95846L81.8737 37.9576H81.4323L64.219 7.28256C62.8949 5.07572 61.2029 3.97231 59.1432 3.97231H56.0537C50.9044 3.97231 46.6378 5.29641 43.254 7.94462C39.8702 10.5928 38.1783 14.418 38.1783 19.4202C38.1783 23.981 39.7231 27.659 42.8126 30.4544C46.0493 33.2497 51.2722 36.2657 58.4812 39.5024L72.6049 45.6815C80.5496 49.0653 86.5816 53.0377 90.701 57.5984C94.9676 62.1592 97.1008 68.3384 97.1008 76.1359C97.1008 87.7585 92.6136 96.8066 83.6391 103.28C74.6646 109.606 62.6742 112.769 47.6677 112.769C33.5439 112.769 20.0087 110.489 7.06188 105.928L19.1995 71.7222H19.6409L37.2955 105.928C38.1783 107.841 39.7231 108.797 41.9299 108.797H47.0056C53.3319 108.797 58.3341 107.326 62.0121 104.383C65.8373 101.441 67.7499 97.5422 67.7499 92.6871Z" fill="#A0958C"/>
<path d="M210.765 51.4193H144.56V51.8607C144.56 65.3959 147.502 75.5474 153.387 82.315C159.272 88.9355 166.849 92.2458 176.118 92.2458C191.713 92.2458 202.894 85.4781 209.662 71.9429H210.103C204.512 99.1605 188.255 112.769 161.332 112.769C146.178 112.769 133.379 108.061 122.933 98.6456C112.487 89.2298 107.264 75.4003 107.264 57.1571C107.264 37.884 112.487 23.5396 122.933 14.1238C133.379 4.70792 146.62 0 162.656 0C168.835 0 174.646 0.809173 180.09 2.42752C185.533 4.04586 190.609 6.54695 195.317 9.93076C200.172 13.3146 203.997 18.1696 206.793 24.4959C209.588 30.675 210.986 38.0312 210.986 46.5643C210.986 48.0355 210.912 49.6538 210.765 51.4193ZM162.215 4.19299C156.477 4.19299 152.137 7.5768 149.194 14.3444C146.252 20.965 144.707 31.9991 144.56 47.447H177C177.148 45.5344 177.221 43.3276 177.221 40.8265C177.221 27.1441 175.897 17.6547 173.249 12.3583C170.748 6.91475 167.07 4.19299 162.215 4.19299Z" fill="#A0958C"/>
<path d="M310.714 7.28256L298.576 41.9299H298.135L280.701 21.1856C279.377 19.5673 278.053 19.1995 276.729 20.0822C273.933 22.1419 270.77 26.4085 267.239 32.8819V92.4665C267.239 94.6733 268.343 96.5123 270.55 97.9836L292.177 110.563V111.004H218.248V110.563L229.061 100.411C230.385 99.2341 231.047 97.4686 231.047 95.1147V18.7581C231.047 16.5513 230.385 14.7122 229.061 13.241L218.248 2.20683V1.76547H267.239V30.013C269.299 21.3328 272.756 14.1973 277.611 8.60666C282.467 2.86889 288.499 0 295.708 0C302.034 0 307.036 2.42752 310.714 7.28256Z" fill="#A0958C"/>
<path d="M90.2596 236.573L65.5431 309.619H40.3851L11.4756 225.759C9.56296 220.463 8.01818 216.564 6.8412 214.063L0 200.822V200.381H55.1709V200.822L47.6677 213.401C46.6378 215.167 46.4171 217.006 47.0056 218.918L69.074 285.565L86.0666 235.911C86.6551 233.557 86.8758 232.086 86.7287 231.497C86.7287 230.762 86.2873 229.437 85.4046 227.525L72.3843 200.822V200.381H110.342V200.822L95.3354 226.642C92.6872 231.056 90.9952 234.366 90.2596 236.573Z" fill="#A0958C"/>
<path d="M140.51 188.243C135.655 188.243 131.462 186.772 127.931 183.83C124.547 180.74 122.855 176.768 122.855 171.913C122.855 166.763 124.547 162.644 127.931 159.554C131.462 156.318 135.655 154.699 140.51 154.699C145.659 154.699 149.926 156.318 153.31 159.554C156.693 162.644 158.385 166.763 158.385 171.913C158.385 176.768 156.693 180.74 153.31 183.83C149.926 186.772 145.659 188.243 140.51 188.243ZM110.276 200.381H159.268V293.73C159.268 296.084 159.93 297.849 161.254 299.026L172.068 309.178V309.619H110.276V309.178L121.09 299.026C122.414 297.849 123.076 296.084 123.076 293.73V217.373C123.076 215.167 122.414 213.328 121.09 211.856L110.276 200.822V200.381Z" fill="#A0958C"/>
<path d="M57.8191 510C43.5483 510 31.4106 505.219 21.4063 495.656C11.402 486.093 6.39983 472.484 6.39983 454.829C6.39983 444.678 8.09173 435.777 11.4756 428.126C14.8594 420.329 19.4202 414.297 25.1579 410.03C30.8957 405.617 37.0749 402.38 43.6954 400.32C50.463 398.26 57.5984 397.231 65.1017 397.231C76.8715 397.231 89.3769 399.438 102.618 403.851L88.4942 441.809H88.0528L71.0602 404.072C70.6188 402.895 70.1774 402.159 69.736 401.865C69.2947 401.571 68.412 401.424 67.0879 401.424H65.9844C52.0078 401.424 45.0195 415.695 45.0195 444.236C45.0195 459.831 47.8148 471.233 53.4055 478.442C59.1432 485.651 66.2787 489.256 74.8118 489.256C86.5816 489.256 95.6296 483.224 101.956 471.16H102.397C100.485 483.371 95.7032 492.934 88.0528 499.849C80.4024 506.616 70.3245 510 57.8191 510Z" fill="#A0958C"/>
<path d="M140.51 386.859C135.655 386.859 131.462 385.387 127.931 382.445C124.547 379.355 122.855 375.383 122.855 370.528C122.855 365.379 124.547 361.259 127.931 358.17C131.462 354.933 135.655 353.315 140.51 353.315C145.659 353.315 149.926 354.933 153.31 358.17C156.693 361.259 158.385 365.379 158.385 370.528C158.385 375.383 156.693 379.355 153.31 382.445C149.926 385.387 145.659 386.859 140.51 386.859ZM110.276 398.996H159.268V492.345C159.268 494.699 159.93 496.465 161.254 497.642L172.068 507.793V508.235H110.276V507.793L121.09 497.642C122.414 496.465 123.076 494.699 123.076 492.345V415.989C123.076 413.782 122.414 411.943 121.09 410.472L110.276 399.438V398.996Z" fill="#A0958C"/>
<path d="M208.827 386.859C203.972 386.859 199.779 385.387 196.248 382.445C192.864 379.355 191.172 375.383 191.172 370.528C191.172 365.379 192.864 361.259 196.248 358.17C199.779 354.933 203.972 353.315 208.827 353.315C213.976 353.315 218.243 354.933 221.627 358.17C225.011 361.259 226.702 365.379 226.702 370.528C226.702 375.383 225.011 379.355 221.627 382.445C218.243 385.387 213.976 386.859 208.827 386.859ZM178.593 398.996H227.585V492.345C227.585 494.699 228.247 496.465 229.571 497.642L240.385 507.793V508.235H178.593V507.793L189.407 497.642C190.731 496.465 191.393 494.699 191.393 492.345V415.989C191.393 413.782 190.731 411.943 189.407 410.472L178.593 399.438V398.996Z" fill="#A0958C"/>
<path fill-rule="evenodd" clip-rule="evenodd" d="M218.256 226.965L281.813 190.271V222.888L218.256 259.583V226.965Z" fill="#373737"/>
<path fill-rule="evenodd" clip-rule="evenodd" d="M218.256 275.516L281.813 238.821V271.439L218.256 308.133V275.516Z" fill="#373737"/>
</svg>
