<svg width="118" height="55" viewBox="0 0 118 55" fill="none" xmlns="http://www.w3.org/2000/svg">
<path d="M30.2852 53.9103V49.2743H30.1385C27.792 52.8429 23.0222 54.9097 18.1824 54.9097C7.18169 54.9097 0.799988 45.9242 0.799988 36.0126C0.799988 26.101 7.40373 17.4007 18.0371 17.4007C20.1418 17.3576 22.2307 17.763 24.1569 18.5886C26.0832 19.4141 27.8002 20.6397 29.1873 22.1792H29.3339V0.00268555H41.3613V53.9116L30.2852 53.9103ZM21.043 26.9552C15.3219 26.9552 12.3887 31.4499 12.3887 36.0166C12.3887 40.6499 15.3205 45.2113 21.043 45.2113C26.472 45.2113 29.8466 40.7206 29.8466 36.0832C29.8466 31.5912 26.472 26.9552 21.043 26.9552Z" fill="white"/>
<path d="M47.4673 17.2582V53.9037H59.4933V17.2582H47.4673Z" fill="white"/>
<path d="M100.5 17.2607H100.238C100.196 17.2607 100.152 17.2607 100.11 17.2607V17.2527H78.7468V16.1867C78.7468 12.9059 79.683 8.79493 84.0841 8.79493H92.3559V0H81.0371V0.0559675C69.9871 0.626305 66.7195 7.97007 66.7195 16.3279V17.2607H63.8562V26.0556H66.7181V53.9129H78.7441V27.4109V26.0543H86.6444H97.578H97.6123H100.524C101.215 26.0028 101.911 26.0982 102.561 26.3337C103.211 26.5693 103.801 26.9394 104.29 27.4185C104.778 27.8976 105.154 28.4742 105.391 29.1084C105.627 29.7425 105.72 30.4192 105.661 31.0914V31.6657C95.0259 31.6657 82.1912 33.3754 82.1912 43.6415C82.1912 51.9874 89.6681 54.7658 95.4604 54.7658C99.793 54.7658 103.978 53.0561 105.81 50.1311H106.027V53.9076H117.027V36.0099C117.031 23.1973 112.55 17.3473 100.5 17.2607ZM106.031 39.6478C106.031 44.0719 103.321 46.9236 98.4717 46.9236C96.0539 46.9236 93.2701 46.0002 93.2701 43.2857C93.2701 39.0801 99.205 38.4405 104.489 38.4405H106.031V39.6478Z" fill="white"/>
<path d="M60.9461 6.95045C60.8597 8.81926 60.0353 10.5837 58.6445 11.8764C57.2537 13.1692 55.4037 13.8906 53.4795 13.8906C51.5553 13.8906 49.7053 13.1692 48.3145 11.8764C46.9237 10.5837 46.0993 8.81926 46.0129 6.95045C46.0993 5.08163 46.9237 3.31721 48.3145 2.02446C49.7053 0.731717 51.5553 0.0102539 53.4795 0.0102539C55.4037 0.0102539 57.2537 0.731717 58.6445 2.02446C60.0353 3.31721 60.8597 5.08163 60.9461 6.95045Z" fill="#FBB03B"/>
</svg>
