<svg width="62" height="56" viewBox="0 0 62 56" fill="none" xmlns="http://www.w3.org/2000/svg">
<path d="M3.65159 14.0073C4.10118 12.6215 4.39048 11.203 4.80814 9.81726C8.24654 -1.4651 21.3876 1.04891 30.9951 1.04891C40.5056 1.01688 53.3261 -1.40105 56.7319 9.8166C57.1495 11.2024 57.4388 12.6208 57.8884 14.0066C61.3587 15.5218 60.7801 22.9031 60.4589 25.9975C59.7519 32.1865 56.6674 46.0469 48.7631 46.4339L50.177 53.9446C50.5301 55.8141 46.0961 55.7494 45.6785 54.3956L43.2689 46.6915C34.8831 47.0137 26.6576 47.0137 18.3037 46.6915L15.8941 54.3956C15.4446 55.7494 11.0106 55.8141 11.3637 53.9446L12.7776 46.4339C4.90524 46.0469 1.78808 32.1865 1.1137 25.9975C0.759884 22.871 0.213864 15.5865 3.65159 14.0073ZM44.2326 25.3857C44.8751 21.55 45.0999 18.1012 47.3491 14.7165C47.9916 13.7171 49.5339 14.7165 48.8914 15.716C46.835 18.8105 46.6422 22.2272 46.0642 25.7407C47.2533 26.0629 48.4099 26.5787 49.2452 27.5455C50.1125 23.0005 50.2734 14.8773 55.8966 13.8138C55.5753 12.6535 55.3179 11.4933 54.9967 10.365C52.0086 0.565855 39.3171 2.85435 30.9951 2.88638C22.6093 2.88638 9.59596 0.469111 6.57589 10.3644C6.22274 11.4926 5.99728 12.6529 5.64413 13.8131C10.4958 14.7159 11.2992 22.1945 11.8771 26.0943C11.9736 26.6748 12.07 27.2225 12.1345 27.7383C12.9698 26.6421 14.2228 26.0943 15.5084 25.74C14.9298 22.2265 14.705 18.8098 12.6812 15.7153C12.0062 14.7159 13.5484 13.7171 14.2235 14.7159C16.4408 18.1006 16.6975 21.5493 17.3081 25.3851C24.665 24.1607 36.875 24.1607 44.2326 25.3857ZM46.0642 34.7652C47.1562 34.056 48.0561 32.5735 48.3454 31.3165C40.6339 29.9947 20.5849 29.1247 13.2591 31.4132C13.5484 32.6702 14.4483 34.0567 15.5084 34.7652C19.0426 37.0864 42.4975 37.0864 46.0642 34.7652ZM48.2809 29.447C47.9277 28.5443 47.1243 28.0285 46.2564 27.7389C41.3402 25.9342 20.1984 25.9342 15.2829 27.7389C14.4157 28.0612 13.5804 28.5769 13.2585 29.4797C21.484 27.352 39.8305 28.0932 48.2809 29.447ZM47.0598 36.2804C42.8825 39.0527 18.6562 39.0527 14.4795 36.2804C11.363 34.2495 10.5916 29.7372 10.0775 26.3845C9.75624 24.3863 8.31038 13.7811 4.35856 15.6826C2.14189 16.7788 2.75242 24.1281 2.94463 25.772C3.49065 30.6713 6.35043 44.2742 12.8089 44.5964C24.7934 45.2089 36.7779 45.2089 48.7311 44.5964C55.2215 44.2742 58.0813 30.6713 58.6273 25.772C58.7883 24.096 59.3981 16.8436 57.2134 15.7153C53.4864 13.7491 51.7193 23.4835 51.4619 25.321C51.1726 27.384 50.9159 29.2215 50.2728 30.4138C50.2734 32.6055 48.8595 35.1202 47.0598 36.2804ZM46.8995 46.5307C46.3209 46.5627 45.743 46.5954 45.1644 46.5954L47.2846 53.3968C47.6703 53.5256 47.9597 53.5903 48.2164 53.5903L46.8995 46.5307ZM16.3756 46.5954C15.797 46.5954 15.2191 46.5633 14.6405 46.5307L13.323 53.5896C13.6442 53.5896 13.9654 53.4929 14.2547 53.3962L16.3756 46.5954Z" fill="black" stroke="black" stroke-width="0.6"/>
</svg>
