<svg width="25" height="25" viewBox="0 0 25 25" xmlns="http://www.w3.org/2000/svg">
<path d="M0.000244141 12.5752C0.00169852 18.7623 4.47309 24.0303 10.5461 25V16.21H7.37499V12.5752H10.5499V9.8083C10.4079 8.4972 10.853 7.19052 11.7644 6.24264C12.6758 5.29477 13.9589 4.80394 15.266 4.90328C16.2041 4.91853 17.1399 5.0026 18.0659 5.15482V8.2475H16.4859C15.942 8.17581 15.3952 8.35657 14.9994 8.73884C14.6037 9.12111 14.402 9.66352 14.451 10.2133V12.5752H17.9146L17.3609 16.2112H14.451V25C21.0189 23.9556 25.6245 17.9202 24.9313 11.2661C24.2381 4.61196 18.4887 -0.331333 11.8484 0.0173622C5.20802 0.366057 0.0012997 5.88467 0.000244141 12.5752Z"/>
</svg>
