<svg width="25" height="25" viewBox="0 0 25 25" xmlns="http://www.w3.org/2000/svg">
<path d="M12.4933 25C9.07853 25 8.67598 24.982 7.34339 24.9238C6.3042 24.8896 5.27847 24.6787 4.31035 24.3C2.63532 23.6491 1.31082 22.326 0.6596 20.6531C0.29495 19.6829 0.09827 18.6578 0.0779787 17.6217C0.000244141 16.2938 0.000244141 15.8586 0.000244141 12.475C0.000244141 9.0555 0.0182897 8.6563 0.0779787 7.33256C0.0987139 6.29785 0.295387 5.27418 0.6596 4.30528C1.31012 2.6302 2.63677 1.30596 4.31451 0.657019C5.28431 0.291365 6.30972 0.0944559 7.34616 0.0748503C8.67182 0 9.10768 0 12.4933 0C15.9358 0 16.3314 0.0180195 17.6432 0.0748503C18.6824 0.0946255 19.7105 0.291514 20.6832 0.657019C22.3605 1.3067 23.6869 2.63068 24.3381 4.30528C24.7089 5.2883 24.9066 6.32797 24.9225 7.3783C25.0002 8.7062 25.0002 9.14005 25.0002 12.5222C25.0002 15.9043 24.9808 16.3479 24.9225 17.6605C24.9018 18.6976 24.7047 19.7236 24.3395 20.6947C23.6866 22.3687 22.3601 23.6923 20.6832 24.343C19.7119 24.7064 18.6858 24.9028 17.6488 24.9238C16.3231 25 15.8886 25 12.4933 25ZM12.4461 2.19422C9.05077 2.19422 8.69819 2.21086 7.37254 2.27046C6.58129 2.28093 5.79769 2.42673 5.05577 2.70154C3.9602 3.12016 3.09329 3.9823 2.66959 5.07457C2.39227 5.82349 2.24623 6.61452 2.23789 7.41295C2.16432 8.7561 2.16432 9.10817 2.16432 12.475C2.16432 15.8017 2.17681 16.2051 2.23789 17.5399C2.25032 18.3303 2.39627 19.1129 2.66959 19.8547C3.09391 20.9463 3.96067 21.8078 5.05577 22.2264C5.79718 22.503 6.5811 22.6489 7.37254 22.6575C8.71624 22.7351 9.07021 22.7351 12.4461 22.7351C15.8512 22.7351 16.2037 22.7185 17.5183 22.6575C18.3101 22.6478 19.0943 22.502 19.8364 22.2264C20.9254 21.8041 21.7866 20.9446 22.2101 19.8575C22.4869 19.108 22.6329 18.3166 22.6418 17.5177H22.6571C22.7168 16.1926 22.7168 15.8392 22.7168 12.4529C22.7168 9.06659 22.7015 8.71036 22.6418 7.38662C22.6294 6.59715 22.4834 5.81547 22.2101 5.07457C21.7876 3.98588 20.9262 3.12471 19.8364 2.70154C19.0944 2.42535 18.3101 2.2795 17.5183 2.27046C16.176 2.19422 15.8248 2.19422 12.4461 2.19422ZM12.4933 18.8775C9.89751 18.8792 7.55635 17.3192 6.56168 14.9249C5.56702 12.5307 6.11477 9.77397 7.94948 7.94031C9.78419 6.10666 12.5445 5.55732 14.943 6.54847C17.3415 7.53963 18.9058 9.87606 18.9064 12.4681C18.9026 16.0042 16.0345 18.8706 12.4933 18.8775ZM12.4933 8.307C10.1934 8.307 8.32895 10.1688 8.32895 12.4653C8.32895 14.7619 10.1934 16.6237 12.4933 16.6237C14.7932 16.6237 16.6577 14.7619 16.6577 12.4653C16.6523 10.171 14.791 8.31233 12.4933 8.307ZM19.1563 7.3187C18.3309 7.31564 17.6639 6.64586 17.6654 5.8217C17.667 4.99754 18.3365 4.33024 19.1618 4.33024C19.9872 4.33024 20.6567 4.99753 20.6582 5.82169C20.6586 6.21931 20.5004 6.60072 20.2185 6.88162C19.9367 7.16252 19.5545 7.3198 19.1563 7.3187Z"/>
</svg>
