<svg width="468" height="681" viewBox="0 0 468 681" fill="none" xmlns="http://www.w3.org/2000/svg">
<path fill-rule="evenodd" clip-rule="evenodd" d="M271.357 677.37L283 661.098L271.357 677.37ZM294.643 677.37L294.724 677.33L294.926 677.191L295.533 676.733L297.918 675.04C299.94 673.566 302.891 671.415 306.61 668.587C314.049 662.97 324.601 654.704 337.195 644.089C370.253 616.247 401.165 586.023 429.675 553.665C496.544 477.462 566 368.695 566 244.353C566 170.062 536.204 98.759 483.162 46.1779C456.945 20.154 425.763 -0.504101 391.411 -14.6076C357.059 -28.711 320.215 -35.9813 283 -36C245.787 -35.9839 208.944 -28.7168 174.592 -14.6168C140.24 -0.516743 109.057 20.1377 82.8382 46.158C29.7438 98.8593 -0.0356381 170.115 3.20077e-05 244.373C3.20077e-05 368.695 69.4563 477.462 136.325 553.665C164.835 586.023 195.747 616.247 228.806 644.089C241.419 654.704 251.951 662.97 259.39 668.587C263.038 671.357 266.724 674.079 270.447 676.753L271.094 677.191L271.276 677.33L271.357 677.37C278.331 682.21 287.67 682.21 294.643 677.37ZM283 661.098L294.643 677.37L283 661.098ZM384.071 242.839C384.071 269.251 373.423 294.581 354.468 313.257C335.514 331.933 309.806 342.425 283 342.425C256.194 342.425 230.486 331.933 211.532 313.257C192.577 294.581 181.929 269.251 181.929 242.839C181.929 216.427 192.577 191.097 211.532 172.422C230.486 153.746 256.194 143.254 283 143.254C309.806 143.254 335.514 153.746 354.468 172.422C373.423 191.097 384.071 216.427 384.071 242.839Z" fill="#FBB03B" fill-opacity="0.07"/>
</svg>
