<svg width="41" height="52" viewBox="0 0 41 52" fill="none" xmlns="http://www.w3.org/2000/svg">
<path fill-rule="evenodd" clip-rule="evenodd" d="M20.8799 51.3073L20.8856 51.3044L20.9 51.2944L20.9429 51.2615L21.112 51.1397C21.2552 51.0337 21.4644 50.879 21.7279 50.6756C22.2551 50.2716 23.0028 49.6771 23.8953 48.9136C26.238 46.9112 28.4286 44.7374 30.4489 42.4101C35.1876 36.9295 40.1096 29.1067 40.1096 20.1637C40.1096 14.8205 37.9981 9.69219 34.2393 5.91043C32.3814 4.03874 30.1717 2.55295 27.7373 1.5386C25.3029 0.524241 22.692 0.00134415 20.0548 0C17.4177 0.00115651 14.8068 0.523828 12.3724 1.53794C9.93809 2.55204 7.72833 4.03756 5.87032 5.909C2.10779 9.6994 -0.0025255 14.8243 2.26822e-06 20.1651C2.26822e-06 29.1067 4.92202 36.9295 9.66068 42.4101C11.681 44.7374 13.8716 46.9112 16.2143 48.9136C17.1082 49.6771 17.8545 50.2716 18.3816 50.6756C18.6402 50.8748 18.9014 51.0706 19.1652 51.2629L19.2111 51.2944L19.2239 51.3044L19.2297 51.3073C19.7239 51.6554 20.3857 51.6554 20.8799 51.3073ZM27.2172 20.0548C27.2172 21.9544 26.4626 23.7762 25.1194 25.1194C23.7762 26.4626 21.9544 27.2172 20.0548 27.2172C18.1552 27.2172 16.3334 26.4626 14.9902 25.1194C13.647 23.7762 12.8924 21.9544 12.8924 20.0548C12.8924 18.1552 13.647 16.3334 14.9902 14.9902C16.3334 13.647 18.1552 12.8924 20.0548 12.8924C21.9544 12.8924 23.7762 13.647 25.1194 14.9902C26.4626 16.3334 27.2172 18.1552 27.2172 20.0548Z" fill="#FBB03B"/>
<path d="M20 28C24.4183 28 28 24.4183 28 20C28 15.5817 24.4183 12 20 12C15.5817 12 12 15.5817 12 20C12 24.4183 15.5817 28 20 28Z" fill="white"/>
</svg>
