<svg id="svg" version="1.1" xmlns="http://www.w3.org/2000/svg" xmlns:xlink="http://www.w3.org/1999/xlink" width="400" height="400" viewBox="0, 0, 400,400"><g id="svgg"><path id="path0" d="M189.304 39.617 C 188.363 39.795,174.300 50.819,158.054 64.116 L 128.516 88.291 128.125 77.935 C 127.546 62.589,128.868 63.281,100.142 63.281 C 68.776 63.281,71.885 59.058,71.842 101.730 L 71.808 134.766 40.106 160.547 C -1.381 194.286,-0.000 193.017,-0.000 197.381 C 0.000 201.913,2.704 204.688,7.122 204.688 C 10.310 204.688,10.203 204.766,37.815 182.187 L 47.656 174.139 47.656 265.230 L 47.656 356.321 49.511 358.176 C 52.396 361.061,49.898 361.018,201.349 360.776 L 344.496 360.547 346.662 358.381 L 348.828 356.215 349.033 265.607 C 349.146 215.773,349.417 175.000,349.635 175.000 C 349.854 175.000,359.069 181.717,370.113 189.926 L 390.194 204.851 393.699 204.456 C 398.120 203.958,400.000 201.832,400.000 197.332 C 400.000 193.007,399.921 192.936,371.484 171.867 C 358.594 162.317,347.695 154.100,347.266 153.608 C 346.836 153.116,345.446 152.048,344.178 151.235 C 342.909 150.422,309.368 125.526,269.642 95.910 C 185.218 32.973,193.556 38.815,189.304 39.617 M262.921 110.011 L 333.984 162.991 334.183 254.152 L 334.381 345.312 198.441 345.313 L 62.500 345.313 62.500 253.661 L 62.500 162.009 126.716 109.520 C 162.035 80.651,191.140 57.031,191.395 57.031 C 191.649 57.031,223.836 80.872,262.921 110.011 M113.281 89.785 L 113.281 100.663 100.977 110.730 C 94.209 116.267,88.232 121.061,87.695 121.383 C 86.924 121.845,86.719 117.452,86.719 100.437 L 86.719 78.906 100.000 78.906 L 113.281 78.906 113.281 89.785 M125.010 128.487 C 116.846 131.154,117.417 134.034,128.296 145.061 L 137.061 153.944 129.878 161.128 L 122.694 168.311 113.811 159.546 C 102.768 148.651,99.764 148.080,97.292 156.405 C 90.813 178.220,107.512 201.353,131.313 203.536 L 137.109 204.068 180.664 247.539 L 224.219 291.010 224.219 295.423 C 224.219 314.225,241.230 331.036,260.595 331.372 C 279.965 331.708,281.506 327.405,267.199 312.934 L 257.835 303.462 265.064 296.264 L 272.293 289.065 281.642 298.439 C 295.851 312.685,300.263 311.342,300.089 292.823 C 299.900 272.606,283.422 255.469,264.173 255.469 L 259.760 255.469 216.296 211.914 L 172.831 168.359 172.361 162.841 C 170.357 139.310,145.990 121.632,125.010 128.487 M146.712 140.815 C 155.869 145.370,160.957 153.621,161.648 165.038 L 162.110 172.655 208.379 218.924 L 254.649 265.194 261.895 265.724 C 276.653 266.803,287.684 276.010,289.591 288.840 L 290.031 291.797 282.306 284.180 C 271.728 273.749,272.999 273.508,257.626 288.858 C 242.241 304.221,242.481 302.959,252.930 313.556 L 260.547 321.281 257.590 320.841 C 244.697 318.925,235.558 307.975,234.474 293.145 L 233.944 285.899 187.674 239.629 L 141.405 193.360 133.788 192.900 C 118.841 191.997,109.927 184.189,106.663 169.141 C 106.214 167.067,106.966 167.601,113.185 173.763 C 123.061 183.550,122.094 183.759,137.302 168.552 C 152.494 153.359,152.289 154.287,142.612 144.565 L 135.744 137.666 139.456 138.359 C 141.498 138.741,144.763 139.846,146.712 140.815 " stroke="none" fill="#000000" fill-rule="evenodd"></path></g></svg>