<svg width="40" height="44" viewBox="0 0 40 44" xmlns="http://www.w3.org/2000/svg">
<path d="M36.6541 24.1912C35.5913 32.968 29.3237 33.5158 28.1623 33.8993C27.6692 34.0637 23.1 35.2252 17.3474 34.8417L11.1237 41.7464L11.1127 33.7914L11.0689 33.7804C2.69754 31.4027 2.98243 22.4725 3.07009 17.7938C3.16871 13.115 4.02337 9.26901 6.57642 6.69405C11.1566 2.44263 20.6127 3.07815 20.6127 3.07815C28.5896 3.11102 32.4137 5.57641 33.3012 6.39821C36.2487 8.97317 37.7499 15.1531 36.6541 24.1928V24.1912ZM35.4817 4.20675C34.4298 3.2206 30.2003 0.075857 20.7661 0.0320279C20.7661 0.0303843 9.64446 -0.65828 4.2206 4.43685C1.20735 7.5268 0.144497 12.0522 0.0239673 17.6623C-0.0856054 23.2724 -0.22805 33.7804 9.66637 36.6293H9.67733V40.9794C9.67733 40.9794 9.61158 42.7435 10.7511 43.0941C12.1208 43.5324 12.9207 42.1956 14.2356 40.7493C14.9587 39.9603 15.9449 38.7989 16.69 37.9113C23.4616 38.4921 28.6663 37.1553 29.247 36.969C30.6167 36.5088 38.3416 35.5007 39.6016 24.9927C40.8836 14.145 38.9552 7.2967 35.4817 4.20675Z" />
<path d="M29.4471 25.5061C29.4471 25.5061 28.176 24.4213 27.5624 23.9611C26.91 23.4846 26.2334 23.0421 25.5353 22.6353C24.6039 22.1093 23.6507 22.4381 23.2562 22.964L22.4344 24.0159C22.018 24.5528 21.3715 24.4542 21.2072 24.4213C20.0019 24.1145 18.7199 23.3694 17.405 22.0984C16.0792 20.8164 15.2683 19.4796 14.9834 18.088L14.9615 18.0004C14.8848 17.4306 14.9834 17.1676 15.2136 16.7731L15.2574 16.7403C15.8052 16.2253 16.8352 15.6007 16.9667 15.009C17.3721 13.979 15.619 11.8205 15.3779 11.4479C15.3779 11.4479 14.1069 9.77144 13.6576 9.44273C13.1755 9.03731 12.4194 8.8072 11.6524 9.27837L11.6086 9.31124C9.41715 10.7905 8.62823 11.6451 8.84737 12.9052L8.95695 13.4202C10.0636 16.9156 12.2113 20.6411 15.3998 23.9611C18.5555 27.2373 21.9742 29.1987 25.3381 30.5574C26.2147 30.8532 27.1241 30.6012 28.0555 29.8013L28.0664 29.7904C28.7787 29.122 29.3484 28.4098 29.7648 27.6428V27.6318C30.1921 26.7881 30.0497 26.0211 29.4471 25.5061Z" />
<path d="M24.2096 17.8468C24.1452 17.8448 24.0839 17.8191 24.0374 17.7746C23.9908 17.7301 23.9624 17.6699 23.9576 17.6057C23.9137 16.6963 23.6727 16.006 23.2344 15.5458C22.7961 15.0855 22.1496 14.8335 21.295 14.7787C21.2273 14.7726 21.1647 14.7408 21.1198 14.6898C21.075 14.6389 21.0514 14.5727 21.0539 14.5048C21.0548 14.4715 21.0624 14.4388 21.0762 14.4085C21.09 14.3782 21.1097 14.351 21.1343 14.3285C21.1588 14.3061 21.1876 14.2887 21.219 14.2776C21.2504 14.2665 21.2836 14.2618 21.3169 14.2638C22.303 14.3185 23.0591 14.6253 23.585 15.1842C24.111 15.743 24.4068 16.5429 24.4506 17.5838C24.4529 17.6176 24.4484 17.6516 24.4375 17.6837C24.4266 17.7158 24.4094 17.7454 24.387 17.7708C24.3646 17.7963 24.3374 17.8171 24.307 17.832C24.2765 17.8469 24.2434 17.8556 24.2096 17.8577" />
<path d="M26.6969 18.7017C26.6631 18.701 26.6297 18.6936 26.5988 18.68C26.5678 18.6664 26.5398 18.6468 26.5164 18.6224C26.493 18.598 26.4746 18.5692 26.4624 18.5377C26.4501 18.5062 26.4442 18.4725 26.4449 18.4387C26.4887 16.6965 25.9737 15.2282 24.9328 14.0668C24.4139 13.4836 23.7747 13.02 23.0591 12.7081C22.3359 12.3794 21.4812 12.1821 20.5499 12.1164C20.5166 12.114 20.4841 12.1049 20.4544 12.0898C20.4247 12.0746 20.3983 12.0536 20.3769 12.0281C20.3554 12.0025 20.3393 11.9729 20.3295 11.9411C20.3197 11.9092 20.3164 11.8756 20.3198 11.8424C20.3219 11.8086 20.3306 11.7755 20.3455 11.7451C20.3604 11.7146 20.3812 11.6874 20.4067 11.665C20.4321 11.6426 20.4617 11.6255 20.4938 11.6146C20.5259 11.6036 20.5599 11.5992 20.5937 11.6014C22.5989 11.7548 24.1877 12.467 25.3163 13.7271C26.4449 14.9872 27.0037 16.5869 26.9599 18.4606C26.9544 18.5265 26.9242 18.5879 26.8755 18.6326C26.8268 18.6773 26.763 18.7019 26.6969 18.7017Z" />
<path d="M29.248 19.7315C29.2148 19.7321 29.1818 19.7259 29.151 19.7134C29.1202 19.7009 29.0922 19.6824 29.0687 19.6589C29.0452 19.6354 29.0266 19.6074 29.0142 19.5766C29.0017 19.5458 28.9955 19.5128 28.996 19.4795C28.9851 17.9455 28.755 16.5539 28.3057 15.3486C27.87 14.1748 27.1903 13.1067 26.3115 12.2148C25.4626 11.3611 24.4535 10.6834 23.3421 10.2206C22.2463 9.77137 21.0301 9.54127 19.7152 9.54127C19.6814 9.54056 19.648 9.53319 19.6171 9.51959C19.5861 9.50598 19.5581 9.48641 19.5347 9.46199C19.5113 9.43757 19.493 9.40878 19.4807 9.37726C19.4684 9.34574 19.4625 9.31211 19.4632 9.27829C19.4627 9.24505 19.4688 9.21205 19.4813 9.18124C19.4938 9.15043 19.5123 9.12244 19.5359 9.09894C19.5594 9.07543 19.5874 9.05689 19.6182 9.0444C19.649 9.03192 19.682 9.02576 19.7152 9.02628C22.4764 9.04819 24.8103 9.99052 26.6621 11.8423C27.5994 12.7826 28.321 13.9155 28.7769 15.1623C29.248 16.4224 29.4891 17.8798 29.5001 19.4795C29.4975 19.5455 29.4701 19.6082 29.4234 19.6549C29.3767 19.7016 29.3141 19.729 29.248 19.7315Z" />
</svg>
