<svg width="27" height="25" viewBox="0 0 27 25" xmlns="http://www.w3.org/2000/svg">
<path d="M22.9167 3.66301C17.8931 -1.221 9.75389 -1.221 4.73567 3.66301C-0.095504 8.35999 -0.277207 15.8731 4.1959 20.7831L4.32951 20.887C3.84319 21.9053 3.00949 23.1627 1.68412 23.7966C1.2459 24.0044 1.34744 24.6383 1.82842 24.7111C3.2767 24.9293 5.3556 24.6851 7.29555 23.2614L7.32227 23.2822C12.2496 26.0983 18.6948 25.4541 22.9274 21.339C27.9403 16.4602 27.9403 8.54184 22.9167 3.66301ZM18.0642 17.8475C17.7809 18.128 17.4816 18.3878 17.2144 18.6788C16.8243 19.1048 16.3326 19.2399 15.7768 19.2087C14.9645 19.1672 14.211 18.9022 13.4895 18.5593C11.8809 17.8007 10.5074 16.746 9.35842 15.4158C8.50869 14.4338 7.8086 13.3635 7.34365 12.1529C7.11919 11.5658 6.95887 10.9683 7.00697 10.3344C7.03903 9.94469 7.18867 9.61217 7.4826 9.33679C7.80325 9.04063 8.10253 8.73408 8.41784 8.43273C8.82934 8.03785 9.34239 8.04305 9.75389 8.43273C10.0104 8.67693 10.2563 8.92113 10.5074 9.16533C10.7533 9.40434 10.9991 9.63815 11.2396 9.87715C11.6671 10.298 11.6671 10.7864 11.2396 11.2073C10.935 11.5086 10.6303 11.81 10.315 12.1009C10.2349 12.1789 10.2242 12.2412 10.2669 12.3399C10.47 12.818 10.7693 13.244 11.1006 13.6389C11.7687 14.439 12.5275 15.1509 13.4361 15.7016C13.6285 15.8211 13.8422 15.9042 14.0453 16.0133C14.1468 16.0705 14.2217 16.0497 14.3018 15.9666C14.6064 15.66 14.9218 15.3587 15.2317 15.0573C15.6432 14.6624 16.1563 14.6624 16.5624 15.0573C17.0648 15.5405 17.5618 16.0237 18.0588 16.5121C18.4864 16.9382 18.4864 17.437 18.0642 17.8475ZM13.3238 9.77324L13.4842 8.66134C14.5904 8.81202 15.5951 9.30042 16.3861 10.0694C17.1396 10.802 17.6313 11.7216 17.8076 12.7348L16.6693 12.9271C16.5304 12.1425 16.1509 11.4307 15.5684 10.8643C14.9538 10.2668 14.1789 9.88754 13.3238 9.77324ZM19.6674 12.7348C19.4109 11.28 18.7055 9.96028 17.6313 8.91074C16.4983 7.80924 15.0607 7.113 13.4735 6.89478L13.6338 5.78289C15.4669 6.03228 17.1343 6.83763 18.4436 8.11579C19.6888 9.3264 20.5065 10.8591 20.8057 12.5426L19.6674 12.7348Z"/>
</svg>
