<svg width="56" height="61" viewBox="0 0 56 61" fill="none" xmlns="http://www.w3.org/2000/svg">
<path d="M54.3491 59.1933V47.6711C54.3491 47.5036 54.2826 47.3431 54.1642 47.2247C54.0458 47.1063 53.8852 47.0397 53.7178 47.0397H18.3619V1.89787C18.3619 1.73043 18.2954 1.56984 18.177 1.45144C18.0586 1.33304 17.898 1.26652 17.7306 1.26652H2.33814C2.1707 1.26652 2.01011 1.33304 1.89171 1.45144C1.7733 1.56984 1.70679 1.73043 1.70679 1.89787V59.1933C1.70679 59.3608 1.7733 59.5214 1.89171 59.6398C2.01011 59.7582 2.1707 59.8247 2.33814 59.8247H53.7178C53.8852 59.8247 54.0458 59.7582 54.1642 59.6398C54.2826 59.5214 54.3491 59.3608 54.3491 59.1933ZM2.9695 2.52923H17.0992V58.562H2.9695V2.52923ZM53.0864 58.562H18.3619V48.3024H53.0864V58.562Z" fill="black" stroke="black" stroke-width="1.5"/>
<path d="M49.2165 42.8601C49.3839 42.8601 49.5445 42.7936 49.6629 42.6752C49.7813 42.5568 49.8478 42.3962 49.8478 42.2287V6.63295C49.8478 6.4655 49.7813 6.30492 49.6629 6.18651C49.5445 6.06811 49.3839 6.00159 49.2165 6.00159H23.7287C23.5613 6.00159 23.4007 6.06811 23.2823 6.18651C23.1639 6.30492 23.0974 6.4655 23.0974 6.63295V42.2287C23.0974 42.3962 23.1639 42.5568 23.2823 42.6752C23.4007 42.7936 23.5613 42.8601 23.7287 42.8601H49.2165ZM24.3601 7.2643H48.5851V41.5974H24.3601V7.2643Z" fill="black" stroke="black" stroke-width="1.5"/>
<path d="M43.327 15.9076L30.6178 28.6042C30.5517 28.6608 30.498 28.7304 30.4601 28.8087C30.4222 28.8871 30.401 28.9724 30.3976 29.0593C30.3942 29.1463 30.4089 29.233 30.4406 29.314C30.4724 29.395 30.5205 29.4686 30.582 29.5301C30.6436 29.5917 30.7172 29.6398 30.7982 29.6716C30.8792 29.7033 30.9659 29.718 31.0528 29.7146C31.1398 29.7112 31.2251 29.6899 31.3034 29.652C31.3818 29.6141 31.4514 29.5605 31.508 29.4944L44.2172 16.7852C44.3075 16.663 44.3508 16.5123 44.3389 16.3607C44.3271 16.2092 44.261 16.067 44.1527 15.9603C44.0445 15.8536 43.9014 15.7895 43.7497 15.7798C43.598 15.7702 43.4479 15.8155 43.327 15.9076Z" fill="black" stroke="black" stroke-width="1.5"/>
<path d="M43.3239 24.9738L40.6407 27.6571C40.5687 27.7119 40.5094 27.7815 40.4667 27.8612C40.4239 27.941 40.3989 28.0289 40.3931 28.1192C40.3873 28.2095 40.401 28.2999 40.4333 28.3844C40.4655 28.4689 40.5155 28.5455 40.5799 28.609C40.6443 28.6725 40.7216 28.7214 40.8066 28.7524C40.8916 28.7835 40.9822 28.7959 41.0724 28.7888C41.1625 28.7818 41.2501 28.7554 41.3292 28.7116C41.4084 28.6677 41.4771 28.6074 41.5309 28.5347L44.2141 25.8514C44.3176 25.7306 44.3716 25.5753 44.3655 25.4164C44.3593 25.2575 44.2935 25.1068 44.181 24.9943C44.0686 24.8819 43.9179 24.816 43.759 24.8099C43.6001 24.8037 43.4447 24.8578 43.3239 24.9612V24.9738Z" fill="black" stroke="black" stroke-width="1.5"/>
<path d="M31.878 22.4169C31.9611 22.4174 32.0434 22.4014 32.1204 22.37C32.1973 22.3386 32.2673 22.2923 32.3263 22.2338L38.7219 15.8634C38.8253 15.7426 38.8794 15.5873 38.8732 15.4284C38.8671 15.2695 38.8012 15.1188 38.6888 15.0063C38.5763 14.8939 38.4256 14.828 38.2667 14.8219C38.1078 14.8157 37.9524 14.8698 37.8317 14.9732L31.455 21.3436C31.3694 21.4306 31.3109 21.5407 31.2866 21.6603C31.2623 21.7799 31.2731 21.904 31.3179 22.0176C31.3627 22.1312 31.4394 22.2294 31.5388 22.3002C31.6382 22.3711 31.756 22.4116 31.878 22.4169Z" fill="black" stroke="black" stroke-width="1.5"/>
<path d="M14.2008 22.9722C14.0333 22.9722 13.8727 23.0387 13.7543 23.1571C13.6359 23.2755 13.5694 23.4361 13.5694 23.6036V32.0448C13.5694 32.2122 13.6359 32.3728 13.7543 32.4912C13.8727 32.6096 14.0333 32.6761 14.2008 32.6761C14.3682 32.6761 14.5288 32.6096 14.6472 32.4912C14.7656 32.3728 14.8321 32.2122 14.8321 32.0448V23.6036C14.8321 23.4361 14.7656 23.2755 14.6472 23.1571C14.5288 23.0387 14.3682 22.9722 14.2008 22.9722Z" fill="black" stroke="black" stroke-width="1.5"/>
<path d="M31.0663 54.0666H40.7197C40.8872 54.0666 41.0478 54.0001 41.1662 53.8817C41.2846 53.7632 41.3511 53.6027 41.3511 53.4352C41.3511 53.2678 41.2846 53.1072 41.1662 52.9888C41.0478 52.8704 40.8872 52.8039 40.7197 52.8039H31.0663C30.8989 52.8039 30.7383 52.8704 30.6199 52.9888C30.5015 53.1072 30.435 53.2678 30.435 53.4352C30.435 53.6027 30.5015 53.7632 30.6199 53.8817C30.7383 54.0001 30.8989 54.0666 31.0663 54.0666Z" fill="black" stroke="black" stroke-width="1.5"/>
</svg>
